#!OML:ASF F:\VICON\USERDATA\INSTALL\rory3\rory3.ASF
:FULLY-SPECIFIED
:DEGREES
4363
root -3.04949 17.5579 1.25063 9.25596 -19.2223 5.05574
lowerback 6.41258 -8.55935 -4.95664
upperback 2.20894 -11.6797 5.19059
thorax 0.852672 -6.0076 8.62756
lowerneck -22.8071 6.13654 -7.35647
upperneck 24.9691 11.3074 -0.133104
head 11.5393 4.2911 2.95091
rclavicle 5.56597e-015 -1.03368e-014
rhumerus -34.7308 -30.4715 -21.2248
rradius 48.0461
rwrist 24.9957
rhand -29.7969 -2.57724
rfingers 7.12502
rthumb -3.12128 -32.5341
lclavicle 5.56597e-015 -1.03368e-014
lhumerus 6.70455 8.21374 47.9553
lradius 35.0005
lwrist -17.6921
lhand -27.6356 29.9086
lfingers 7.12502
lthumb -1.03401 59.8859
rfemur -31.5953 13.0067 1.94079
rtibia 37.8745
rfoot -14.1587 1.52732
rtoes -0.261075
lfemur -16.4121 13.6092 -23.0695
ltibia 28.8402
lfoot -17.2481 10.189
ltoes -19.35
4364
root -3.05377 17.5487 1.25277 8.91162 -20.2942 5.73604
lowerback 6.66285 -8.56513 -5.6445
upperback 2.30854 -11.7416 5.0841
thorax 0.95006 -6.05578 8.9157
lowerneck -22.7462 6.15312 -7.11393
upperneck 24.6947 11.2815 -0.356668
head 11.4556 4.28828 2.81674
rclavicle -6.12257e-014 4.21423e-014
rhumerus -36.0161 -30.8587 -20.7152
rradius 48.0482
rwrist 25.055
rhand -29.8163 -2.44812
rfingers 7.12502
rthumb -3.14002 -32.4047
lclavicle -6.12257e-014 4.21423e-014
lhumerus 7.84471 7.81655 48.2305
lradius 34.8222
lwrist -17.4762
lhand -27.661 29.9658
lfingers 7.12502
lthumb -1.05849 59.943
rfemur -31.9469 13.2672 1.16437
rtibia 38.0384
rfoot -13.8423 2.13857
rtoes 0.0838372
lfemur -16.1318 14.2224 -23.8572
ltibia 28.7583
lfoot -17.4146 10.5445
ltoes -19.6437
4365
root -3.06057 17.5417 1.24471 8.99813 -21.0744 5.80333
lowerback 6.77649 -8.5889 -5.67581
upperback 2.41555 -11.7807 5.0771
thorax 1.01325 -6.08282 8.93367
lowerneck -22.8521 6.10546 -6.82748
upperneck 24.485 11.1073 -0.355266
head 11.4178 4.24782 2.74464
rclavicle -6.2816e-014 1.90833e-014
rhumerus -37.6112 -30.9568 -20.2311
rradius 48.0658
rwrist 24.6177
rhand -30.1593 -2.57702
rfingers 7.12502
rthumb -3.47132 -32.5285
lclavicle -6.2816e-014 1.90833e-014
lhumerus 9.35017 7.39573 48.4624
lradius 34.4157
lwrist -17.4412
lhand -28.0023 29.7242
lfingers 7.12502
lthumb -1.38817 59.6994
rfemur -32.5046 13.5523 1.0043
rtibia 38.1978
rfoot -13.6617 2.43868
rtoes -0.174646
lfemur -16.2221 14.6366 -24.0059
ltibia 28.7021
lfoot -17.408 10.8557
ltoes -19.6341
4366
root -3.0613 17.5386 1.23701 9.34545 -21.7771 5.61214
lowerback 6.76243 -8.71536 -5.44184
upperback 2.44949 -11.936 5.2294
thorax 1.07316 -6.16558 8.96036
lowerneck -22.7713 6.1523 -6.61322
upperneck 24.1428 11.0983 -0.474295
head 11.2936 4.26912 2.65172
rclavicle 1.33981e-013 -5.64548e-014
rhumerus -38.857 -30.8473 -19.9082
rradius 48.0739
rwrist 24.1932
rhand -30.4116 -2.98885
rfingers 7.12502
rthumb -3.71496 -32.9362
lclavicle 1.33981e-013 -5.64548e-014
lhumerus 10.5484 7.19177 48.7355
lradius 34.1631
lwrist -17.5104
lhand -28.5893 29.4736
lfingers 7.12502
lthumb -1.95504 59.4444
rfemur -33.2252 13.8488 1.03865
rtibia 38.3193
rfoot -13.5041 2.58639
rtoes -0.932236
lfemur -16.5179 14.882 -23.9483
ltibia 28.6644
lfoot -17.4363 11.2299
ltoes -19.0932
4367
root -3.05833 17.5358 1.23799 9.3741 -22.4787 5.78019
lowerback 6.93102 -8.91677 -5.51497
upperback 2.40225 -12.2171 5.42002
thorax 1.04707 -6.31296 9.23073
lowerneck -22.5579 6.24753 -6.78199
upperneck 23.8051 11.2757 -0.585902
head 11.1185 4.34261 2.64138
rclavicle 2.74323e-014 -2.46493e-014
rhumerus -39.6491 -30.6377 -19.5268
rradius 47.9766
rwrist 23.8615
rhand -30.3517 -3.06253
rfingers 7.12502
rthumb -3.65708 -33.0109
lclavicle 2.74323e-014 -2.46493e-014
lhumerus 11.2757 7.18698 49.2469
lradius 34.129
lwrist -17.7338
lhand -28.6847 29.6566
lfingers 7.12502
lthumb -2.04716 59.6265
rfemur -33.6514 14.0726 0.747636
rtibia 38.3725
rfoot -13.3238 2.87704
rtoes -1.15423
lfemur -16.5596 15.0972 -24.2296
ltibia 28.6691
lfoot -17.5585 11.6001
ltoes -18.8285
4368
root -3.06088 17.5353 1.24547 9.17471 -23.0432 5.8909
lowerback 7.2714 -9.17773 -5.57686
upperback 2.45899 -12.5846 5.62774
thorax 1.05964 -6.51085 9.53379
lowerneck -22.6174 6.3366 -7.05241
upperneck 23.6636 11.4972 -0.620175
head 11.0558 4.42076 2.69915
rclavicle 3.49861e-014 1.51076e-014
rhumerus -40.1304 -30.6161 -19.2363
rradius 47.7099
rwrist 23.5602
rhand -30.2426 -2.93863
rfingers 7.12502
rthumb -3.55171 -32.8888
lclavicle 3.49861e-014 1.51076e-014
lhumerus 11.993 7.30885 49.7273
lradius 34.075
lwrist -18.0789
lhand -28.473 30.1567
lfingers 7.12502
lthumb -1.84277 60.1285
rfemur -33.6966 14.348 0.624378
rtibia 38.3927
rfoot -13.2072 3.18086
rtoes -1.10782
lfemur -16.2658 15.2602 -24.3311
ltibia 28.6338
lfoot -17.6852 11.8923
ltoes -18.793
